<svg width="474" height="401" viewBox="0 0 474 401" fill="none" xmlns="http://www.w3.org/2000/svg">
	<path fill-rule="evenodd" clip-rule="evenodd"
		d="M241.452 282.615L92.615 24.8222L92.5444 24.6997L92.5442 24.6998C78.8063 1.05766 48.518 -7.02361 24.8222 6.65715C1.12642 20.3379 -7.01916 50.609 6.58661 74.3274L6.58652 74.3275L6.6073 74.3635L6.65715 74.45L6.70716 74.5364L180.284 375.18L180.331 375.153C180.339 375.167 180.346 375.181 180.354 375.195C194.039 398.898 224.325 407.041 248.047 393.417L248.147 393.36L473.357 263.335C449.62 277.039 419.268 268.906 405.564 245.17C391.866 221.443 399.986 191.107 423.699 177.394L241.452 282.615ZM423.76 177.359C423.859 177.302 423.959 177.245 424.059 177.188L424.059 177.187L423.76 177.359ZM473.686 263.143L473.687 263.144L473.484 263.261C473.523 263.238 473.562 263.216 473.601 263.193L473.686 263.143Z"
		fill="#E3E3E3" />
</svg>